<svg xmlns="http://www.w3.org/2000/svg" viewBox="0 0 1080 288" width="1080" height="288">
  <rect width="1080" height="288" fill="#0E6E4E"></rect>
  <g fill="none" stroke="#FBF8F1" stroke-width="4" opacity="0.16">
    <path d="M0 216 C162 173 270 245 432 202 C594 158 702 230 864 187 C972 158 1026 187 1080 173"></path>
    <path d="M0 252 C162 209 270 281 432 238 C594 194 702 266 864 223 C972 194 1026 223 1080 209"></path>
    <circle cx="891" cy="69" r="54"></circle>
  </g>
  <g fill="none" stroke="#FBF8F1" stroke-width="5.5" stroke-linecap="round" stroke-linejoin="round" transform="translate(58 78) scale(1.32)">
    <g transform="rotate(45 50 50)">
      <path d="M50 44 C54 33 62 28 71 33 C79 38 80 48 73 53 C68 56 62 55 60 51"></path>
      <path d="M50 44 C46 33 38 28 29 33 C21 38 20 48 27 53 C32 56 38 55 40 51"></path>
      <path d="M33 60 H67"></path>
      <path d="M50 88 C46 80 46 71 50 65 C54 71 54 80 50 88 Z"></path>
      <path d="M50 7 C45 24 45 43 50 57 C55 43 55 24 50 7 Z" stroke="#F5C99B"></path>
    </g>
  </g>
  <text x="230" y="140" font-family="Patrick Hand, Comic Sans MS, cursive" font-size="80" fill="#FBF8F1">Лілейка</text>
  <text x="232" y="186" font-family="Karla, Helvetica, Arial, sans-serif" font-size="24" fill="#C6E2D5">Весь курінь під рукою — реєстр, планування, вмілості.</text>
  <text x="232" y="228" font-family="Karla, Helvetica, Arial, sans-serif" font-size="18" font-weight="700" fill="#8FBCA9" letter-spacing="2">PROJECTK</text>
</svg>